<svg xmlns="http://www.w3.org/2000/svg" xmlns:xlink="http://www.w3.org/1999/xlink" width="500" zoomAndPan="magnify" viewBox="0 0 375 374.999991" height="500" preserveAspectRatio="xMidYMid meet" version="1.0"><defs><g/><clipPath id="9355c0d760"><path d="M 127.398438 121 L 185 121 L 185 183.878906 L 127.398438 183.878906 Z M 127.398438 121 " clip-rule="nonzero"/></clipPath><clipPath id="5038ed83cb"><path d="M 141 102.878906 L 171 102.878906 L 171 122 L 141 122 Z M 141 102.878906 " clip-rule="nonzero"/></clipPath><clipPath id="f529d7a11e"><path d="M 190 121 L 247.398438 121 L 247.398438 183.878906 L 190 183.878906 Z M 190 121 " clip-rule="nonzero"/></clipPath><clipPath id="dc3bcfba11"><path d="M 204 102.878906 L 233 102.878906 L 233 122 L 204 122 Z M 204 102.878906 " clip-rule="nonzero"/></clipPath></defs><g clip-path="url(#9355c0d760)"><path fill="#3b7bf8" d="M 160.410156 142.773438 C 161.644531 142.433594 162.925781 143.152344 163.269531 144.386719 C 166.035156 154.363281 174.707031 161.570312 184.855469 162.632812 L 184.855469 128.167969 C 184.855469 124.253906 181.6875 121.078125 177.769531 121.078125 L 134.472656 121.078125 C 130.558594 121.078125 127.382812 124.253906 127.382812 128.167969 L 127.382812 176.582031 C 127.382812 180.496094 130.558594 183.667969 134.472656 183.667969 L 177.769531 183.667969 C 181.6875 183.667969 184.855469 180.496094 184.855469 176.582031 L 184.855469 167.300781 C 172.625 166.21875 162.117188 157.605469 158.792969 145.628906 C 158.453125 144.394531 159.171875 143.117188 160.410156 142.773438 Z M 174.140625 139.933594 C 175.886719 139.933594 177.296875 141.359375 177.296875 143.121094 C 177.296875 144.878906 175.886719 146.3125 174.140625 146.3125 C 172.398438 146.3125 170.980469 144.878906 170.980469 143.121094 C 170.980469 141.359375 172.398438 139.933594 174.140625 139.933594 Z M 174.140625 139.933594 " fill-opacity="1" fill-rule="nonzero"/></g><g clip-path="url(#5038ed83cb)"><path fill="#3b7bf8" d="M 170.257812 121.078125 L 165.617188 121.078125 L 165.617188 117.054688 C 165.617188 111.820312 161.359375 107.558594 156.125 107.558594 C 150.890625 107.558594 146.628906 111.820312 146.628906 117.054688 L 146.628906 121.078125 L 141.992188 121.078125 L 141.992188 117.054688 C 141.992188 109.257812 148.335938 102.921875 156.125 102.921875 C 163.914062 102.921875 170.261719 109.265625 170.261719 117.054688 L 170.261719 121.078125 Z M 170.257812 121.078125 " fill-opacity="1" fill-rule="nonzero"/></g><g clip-path="url(#f529d7a11e)"><path fill="#3b7bf8" d="M 240.472656 121.078125 L 197.171875 121.078125 C 193.257812 121.078125 190.085938 124.253906 190.085938 128.167969 L 190.085938 162.636719 C 200.234375 161.574219 208.90625 154.363281 211.683594 144.386719 C 212.023438 143.152344 213.300781 142.429688 214.535156 142.773438 C 215.769531 143.117188 216.496094 144.394531 216.15625 145.628906 C 212.828125 157.605469 202.316406 166.222656 190.085938 167.300781 L 190.085938 176.582031 C 190.085938 180.496094 193.257812 183.667969 197.171875 183.667969 L 240.472656 183.667969 C 244.386719 183.667969 247.5625 180.496094 247.5625 176.582031 L 247.5625 128.167969 C 247.5625 124.253906 244.386719 121.078125 240.472656 121.078125 Z M 200.804688 146.3125 C 199.058594 146.3125 197.644531 144.878906 197.644531 143.121094 C 197.644531 141.359375 199.058594 139.933594 200.804688 139.933594 C 202.550781 139.933594 203.96875 141.359375 203.96875 143.121094 C 203.96875 144.878906 202.550781 146.3125 200.804688 146.3125 Z M 200.804688 146.3125 " fill-opacity="1" fill-rule="nonzero"/></g><g clip-path="url(#dc3bcfba11)"><path fill="#3b7bf8" d="M 232.960938 121.078125 L 228.324219 121.078125 L 228.324219 117.054688 C 228.324219 111.820312 224.0625 107.558594 218.828125 107.558594 C 213.59375 107.558594 209.335938 111.820312 209.335938 117.054688 L 209.335938 121.078125 L 204.695312 121.078125 L 204.695312 117.054688 C 204.695312 109.257812 211.039062 102.921875 218.828125 102.921875 C 226.625 102.921875 232.964844 109.265625 232.964844 117.054688 L 232.964844 121.078125 Z M 232.960938 121.078125 " fill-opacity="1" fill-rule="nonzero"/></g><g fill="#000000" fill-opacity="1"><g transform="translate(93.973303, 210.35984)"><g><path d="M 11.65625 -12.5625 L 11.65625 0 L 9.140625 0 L 9.140625 -5.34375 L 3.765625 -5.34375 L 3.765625 0 L 1.234375 0 L 1.234375 -12.5625 L 3.765625 -12.5625 L 3.765625 -7.390625 L 9.140625 -7.390625 L 9.140625 -12.5625 Z M 11.65625 -12.5625 "/></g></g></g><g fill="#000000" fill-opacity="1"><g transform="translate(115.177435, 210.35984)"><g><path d="M 8.953125 -2.390625 L 3.9375 -2.390625 L 3.109375 0 L 0.46875 0 L 4.984375 -12.578125 L 7.921875 -12.578125 L 12.4375 0 L 9.78125 0 Z M 8.265625 -4.40625 L 6.4375 -9.671875 L 4.625 -4.40625 Z M 8.265625 -4.40625 "/></g></g></g><g fill="#000000" fill-opacity="1"><g transform="translate(136.363565, 210.35984)"><g><path d="M 10.40625 -8.671875 C 10.40625 -8.003906 10.242188 -7.375 9.921875 -6.78125 C 9.609375 -6.195312 9.113281 -5.722656 8.4375 -5.359375 C 7.757812 -5.003906 6.90625 -4.828125 5.875 -4.828125 L 3.765625 -4.828125 L 3.765625 0 L 1.234375 0 L 1.234375 -12.5625 L 5.875 -12.5625 C 6.84375 -12.5625 7.664062 -12.394531 8.34375 -12.0625 C 9.03125 -11.726562 9.546875 -11.265625 9.890625 -10.671875 C 10.234375 -10.085938 10.40625 -9.421875 10.40625 -8.671875 Z M 5.765625 -6.859375 C 6.453125 -6.859375 6.960938 -7.015625 7.296875 -7.328125 C 7.640625 -7.648438 7.8125 -8.097656 7.8125 -8.671875 C 7.8125 -9.898438 7.128906 -10.515625 5.765625 -10.515625 L 3.765625 -10.515625 L 3.765625 -6.859375 Z M 5.765625 -6.859375 "/></g></g></g><g fill="#000000" fill-opacity="1"><g transform="translate(155.605708, 210.35984)"><g><path d="M 10.40625 -8.671875 C 10.40625 -8.003906 10.242188 -7.375 9.921875 -6.78125 C 9.609375 -6.195312 9.113281 -5.722656 8.4375 -5.359375 C 7.757812 -5.003906 6.90625 -4.828125 5.875 -4.828125 L 3.765625 -4.828125 L 3.765625 0 L 1.234375 0 L 1.234375 -12.5625 L 5.875 -12.5625 C 6.84375 -12.5625 7.664062 -12.394531 8.34375 -12.0625 C 9.03125 -11.726562 9.546875 -11.265625 9.890625 -10.671875 C 10.234375 -10.085938 10.40625 -9.421875 10.40625 -8.671875 Z M 5.765625 -6.859375 C 6.453125 -6.859375 6.960938 -7.015625 7.296875 -7.328125 C 7.640625 -7.648438 7.8125 -8.097656 7.8125 -8.671875 C 7.8125 -9.898438 7.128906 -10.515625 5.765625 -10.515625 L 3.765625 -10.515625 L 3.765625 -6.859375 Z M 5.765625 -6.859375 "/></g></g></g><g fill="#000000" fill-opacity="1"><g transform="translate(174.847855, 210.35984)"><g><path d="M 11.234375 -12.5625 L 6.984375 -4.375 L 6.984375 0 L 4.46875 0 L 4.46875 -4.375 L 0.203125 -12.5625 L 3.046875 -12.5625 L 5.734375 -6.828125 L 8.421875 -12.5625 Z M 11.234375 -12.5625 "/></g></g></g><g fill="#000000" fill-opacity="1"><g transform="translate(194.593999, 210.35984)"><g/></g></g><g fill="#000000" fill-opacity="1"><g transform="translate(207.176159, 210.35984)"><g><path d="M 5.578125 0.125 C 4.703125 0.125 3.910156 -0.0234375 3.203125 -0.328125 C 2.503906 -0.628906 1.953125 -1.0625 1.546875 -1.625 C 1.140625 -2.1875 0.929688 -2.851562 0.921875 -3.625 L 3.625 -3.625 C 3.65625 -3.101562 3.832031 -2.691406 4.15625 -2.390625 C 4.488281 -2.085938 4.945312 -1.9375 5.53125 -1.9375 C 6.113281 -1.9375 6.570312 -2.078125 6.90625 -2.359375 C 7.25 -2.648438 7.421875 -3.019531 7.421875 -3.46875 C 7.421875 -3.84375 7.304688 -4.148438 7.078125 -4.390625 C 6.847656 -4.628906 6.5625 -4.816406 6.21875 -4.953125 C 5.875 -5.097656 5.40625 -5.253906 4.8125 -5.421875 C 3.988281 -5.660156 3.320312 -5.894531 2.8125 -6.125 C 2.300781 -6.363281 1.863281 -6.71875 1.5 -7.1875 C 1.132812 -7.664062 0.953125 -8.300781 0.953125 -9.09375 C 0.953125 -9.832031 1.132812 -10.476562 1.5 -11.03125 C 1.875 -11.582031 2.398438 -12.003906 3.078125 -12.296875 C 3.753906 -12.597656 4.519531 -12.75 5.375 -12.75 C 6.675781 -12.75 7.726562 -12.429688 8.53125 -11.796875 C 9.34375 -11.171875 9.789062 -10.289062 9.875 -9.15625 L 7.109375 -9.15625 C 7.085938 -9.59375 6.90625 -9.953125 6.5625 -10.234375 C 6.21875 -10.515625 5.765625 -10.65625 5.203125 -10.65625 C 4.710938 -10.65625 4.316406 -10.53125 4.015625 -10.28125 C 3.722656 -10.03125 3.578125 -9.664062 3.578125 -9.1875 C 3.578125 -8.84375 3.6875 -8.5625 3.90625 -8.34375 C 4.132812 -8.125 4.410156 -7.941406 4.734375 -7.796875 C 5.066406 -7.660156 5.535156 -7.503906 6.140625 -7.328125 C 6.953125 -7.085938 7.613281 -6.847656 8.125 -6.609375 C 8.644531 -6.367188 9.09375 -6.007812 9.46875 -5.53125 C 9.84375 -5.050781 10.03125 -4.421875 10.03125 -3.640625 C 10.03125 -2.960938 9.851562 -2.335938 9.5 -1.765625 C 9.15625 -1.191406 8.644531 -0.734375 7.96875 -0.390625 C 7.300781 -0.046875 6.503906 0.125 5.578125 0.125 Z M 5.578125 0.125 "/></g></g></g><g fill="#000000" fill-opacity="1"><g transform="translate(226.43629, 210.35984)"><g><path d="M 11.65625 -12.5625 L 11.65625 0 L 9.140625 0 L 9.140625 -5.34375 L 3.765625 -5.34375 L 3.765625 0 L 1.234375 0 L 1.234375 -12.5625 L 3.765625 -12.5625 L 3.765625 -7.390625 L 9.140625 -7.390625 L 9.140625 -12.5625 Z M 11.65625 -12.5625 "/></g></g></g><g fill="#000000" fill-opacity="1"><g transform="translate(247.640417, 210.35984)"><g><path d="M 7.078125 0.125 C 5.898438 0.125 4.816406 -0.148438 3.828125 -0.703125 C 2.847656 -1.253906 2.066406 -2.019531 1.484375 -3 C 0.910156 -3.976562 0.625 -5.082031 0.625 -6.3125 C 0.625 -7.539062 0.910156 -8.644531 1.484375 -9.625 C 2.066406 -10.601562 2.847656 -11.367188 3.828125 -11.921875 C 4.816406 -12.472656 5.898438 -12.75 7.078125 -12.75 C 8.265625 -12.75 9.347656 -12.472656 10.328125 -11.921875 C 11.304688 -11.367188 12.078125 -10.601562 12.640625 -9.625 C 13.210938 -8.644531 13.5 -7.539062 13.5 -6.3125 C 13.5 -5.082031 13.210938 -3.976562 12.640625 -3 C 12.078125 -2.019531 11.300781 -1.253906 10.3125 -0.703125 C 9.332031 -0.148438 8.253906 0.125 7.078125 0.125 Z M 7.078125 -2.125 C 7.828125 -2.125 8.488281 -2.296875 9.0625 -2.640625 C 9.644531 -2.984375 10.097656 -3.472656 10.421875 -4.109375 C 10.742188 -4.742188 10.90625 -5.476562 10.90625 -6.3125 C 10.90625 -7.15625 10.742188 -7.890625 10.421875 -8.515625 C 10.097656 -9.148438 9.644531 -9.632812 9.0625 -9.96875 C 8.488281 -10.300781 7.828125 -10.46875 7.078125 -10.46875 C 6.316406 -10.46875 5.644531 -10.300781 5.0625 -9.96875 C 4.476562 -9.632812 4.023438 -9.148438 3.703125 -8.515625 C 3.378906 -7.890625 3.21875 -7.15625 3.21875 -6.3125 C 3.21875 -5.476562 3.378906 -4.742188 3.703125 -4.109375 C 4.023438 -3.472656 4.476562 -2.984375 5.0625 -2.640625 C 5.644531 -2.296875 6.316406 -2.125 7.078125 -2.125 Z M 7.078125 -2.125 "/></g></g></g><g fill="#000000" fill-opacity="1"><g transform="translate(270.068546, 210.35984)"><g><path d="M 10.40625 -8.671875 C 10.40625 -8.003906 10.242188 -7.375 9.921875 -6.78125 C 9.609375 -6.195312 9.113281 -5.722656 8.4375 -5.359375 C 7.757812 -5.003906 6.90625 -4.828125 5.875 -4.828125 L 3.765625 -4.828125 L 3.765625 0 L 1.234375 0 L 1.234375 -12.5625 L 5.875 -12.5625 C 6.84375 -12.5625 7.664062 -12.394531 8.34375 -12.0625 C 9.03125 -11.726562 9.546875 -11.265625 9.890625 -10.671875 C 10.234375 -10.085938 10.40625 -9.421875 10.40625 -8.671875 Z M 5.765625 -6.859375 C 6.453125 -6.859375 6.960938 -7.015625 7.296875 -7.328125 C 7.640625 -7.648438 7.8125 -8.097656 7.8125 -8.671875 C 7.8125 -9.898438 7.128906 -10.515625 5.765625 -10.515625 L 3.765625 -10.515625 L 3.765625 -6.859375 Z M 5.765625 -6.859375 "/></g></g></g></svg>